<?xml version="1.0" encoding="UTF-8"?>
<svg enable-background="new 0 0 512 512" version="1.1" viewBox="0 0 512 512" xml:space="preserve" xmlns="http://www.w3.org/2000/svg" xmlns:cc="http://creativecommons.org/ns#" xmlns:dc="http://purl.org/dc/elements/1.1/" xmlns:rdf="http://www.w3.org/1999/02/22-rdf-syntax-ns#"><metadata><rdf:RDF><cc:Work rdf:about=""><dc:format>image/svg+xml</dc:format><dc:type rdf:resource="http://purl.org/dc/dcmitype/StillImage"/><dc:title/></cc:Work></rdf:RDF></metadata>
<g transform="matrix(.59763 -.27816 .27816 .59763 -39.327 159.67)">
	<g transform="matrix(1.4516 0 0 1.4516 -106.45 -161.32)" fill="#e48442">
		<path d="m312.18 436.99 139.27-135.78c1.967 2.828 3.888 5.701 5.725 8.649 4.337 6.963 11.737 10.978 19.69 10.978 1.611 0 3.246-0.164 4.88-0.503 3.163-0.655 6.055-1.911 8.578-3.632 0.182-0.118 0.357-0.244 0.527-0.377 4.94-3.58 8.351-9.013 9.305-15.373 1.915-12.748 2.687-25.808 2.295-38.816-1.684-55.815-24.791-108.18-65.066-147.44-40.266-39.254-93.2-61.042-149.05-61.351-0.408-2e-3 -0.814-3e-3 -1.222-3e-3 -0.64 0-1.276 0.018-1.916 0.023-0.153-9e-3 -0.305-0.023-0.46-0.023-0.253 0-0.504 0.013-0.751 0.038-42.652 0.603-83.297 13.525-117.88 37.104-0.414 0.082-0.825 0.192-1.233 0.348-1.654 0.632-2.954 1.781-3.799 3.189-9.095 6.59-17.748 13.924-25.866 21.997-40.962 40.738-63.522 94.988-63.522 152.76 0 10.726 0.798 21.505 2.372 32.039 0.956 6.4 4.375 11.867 9.33 15.47 0.154 0.118 0.31 0.233 0.474 0.34 2.547 1.756 5.471 3.036 8.674 3.7 9.687 2.009 19.315-2.103 24.529-10.47 2.272-3.648 4.648-7.202 7.118-10.665l164.64 140.04zm-178.6-149.94c10.522-12.617 22.412-23.776 35.41-33.295l114.9 166.62zm165.04 131.12-116.97-172.94c31.092-19.28 67.368-29.883 105.47-29.883 39.135 0 76.359 11.165 108 31.453zm14.953 0.83108 94.084-163.44c12.696 9.596 24.319 20.749 34.57 33.346zm156.51-117.19c-3.281-5.267-6.802-10.372-10.518-15.326-0.376-0.94-0.945-1.821-1.711-2.577-0.244-0.241-0.504-0.455-0.769-0.656-17.409-22.317-39.127-41.168-63.779-55.162-32.212-18.286-68.931-27.951-106.19-27.951-37.255 0-73.971 9.664-106.18 27.949-31.227 17.725-57.775 43.216-76.777 73.715-1.943 3.119-4.731 3.772-6.669 3.794 27.345-80.436 104.22-135.8 189.67-135.8 0.361 0 0.729 1e-3 1.09 3e-3 84.657 0.465 161.11 55.953 188.43 135.81-1.944-0.044-4.685-0.732-6.598-3.8zm16.304-13.508c-14.606-35.231-38.726-66.635-69.351-89.886-37.422-28.412-81.927-43.567-128.7-43.825-47.544-0.295-92.652 14.643-130.52 43.106-30.946 23.256-55.287 54.85-69.985 90.425-0.616-6.422-0.933-12.899-0.933-19.357 1e-3 -53.691 20.968-104.11 59.039-141.97 5.836-5.805 11.968-11.202 18.357-16.186l11.03 28.891c1.158 3.031 4.043 4.894 7.105 4.894 0.901 0 1.818-0.161 2.711-0.502 3.923-1.498 5.889-5.893 4.392-9.815l-12.464-32.644c29.674-19.608 63.992-30.889 100.07-32.647v39.862c0 4.2 3.404 7.603 7.603 7.603s7.603-3.403 7.603-7.603v-40.028c36.725 0.968 71.278 12.189 100.8 30.896l-13.195 34.561c-1.497 3.922 0.468 8.317 4.392 9.815 0.892 0.341 1.81 0.502 2.711 0.502 3.062 0 5.948-1.862 7.105-4.893l11.872-31.096c47.567 35.529 79.34 91.493 81.231 154.19 0.257 8.59-0.04 17.2-0.864 25.714z" fill="#e48442"/>
	</g>
</g>
</svg>
